
  <svg
    width="1000"
    height="1000"
    viewBox="0 0 1000 1000"
    xmlns="http://www.w3.org/2000/svg"
  >
    <defs>
    
      
      
      <clipPath id="shape">
        <path fill="currentColor" d="M825,606.5Q713,713,606.5,800Q500,887,382,811.5Q264,736,156.5,618Q49,500,99.5,325Q150,150,325,150.5Q500,151,635.5,190Q771,229,854,364.5Q937,500,825,606.5Z"></path>
      </clipPath>
    </defs>
  
    

    <g  clip-path="url(#shape)">
      <path fill="#444cf7" d="M825,606.5Q713,713,606.5,800Q500,887,382,811.5Q264,736,156.5,618Q49,500,99.5,325Q150,150,325,150.5Q500,151,635.5,190Q771,229,854,364.5Q937,500,825,606.5Z" />
    </g>

    
  
  </svg>